<?xml version="1.0" encoding="utf-8"?>
<svg version="1.1" id="Capa_1" x="0px" y="0px" viewBox="2.25 5.142 307.583 81.637" style="enable-background:new 0 0 305.333 305.333;" xmlns="http://www.w3.org/2000/svg" xmlns:bx="https://boxy-svg.com">
  <defs>
    <style bx:fonts="Bangers">@import url(https://fonts.googleapis.com/css2?family=Bangers%3Aital%2Cwght%400%2C400&amp;display=swap);</style>
  </defs>
  <g transform="matrix(1, 0, 0, 1, 3.214031, -107.348648)">
    <path d="M290.501,145.889l13.925-19.845c1.072-1.527,1.204-3.523,0.343-5.179c-0.86-1.655-2.571-2.693-4.436-2.693h-41.88 c-2.761,0-5,2.239-5,5v7.892H51.88v-7.892c0-2.761-2.239-5-5-5H5c-1.865,0-3.576,1.039-4.436,2.693 c-0.861,1.655-0.729,3.651,0.343,5.179l13.925,19.845L0.907,165.734c-1.072,1.527-1.204,3.523-0.343,5.179 c0.86,1.655,2.571,2.693,4.436,2.693h36.88v8.555c0,2.761,2.239,5,5,5h211.573c2.761,0,5-2.239,5-5v-8.555h36.88 c1.865,0,3.576-1.039,4.436-2.693c0.861-1.655,0.729-3.651-0.343-5.179L290.501,145.889z M14.617,163.606l10.416-14.845 c1.209-1.724,1.209-4.021,0-5.744l-10.417-14.845H41.88v7.892v27.542H14.617z M253.453,177.161H51.88v-8.555v-27.542h201.573 v27.542V177.161z M263.453,163.606v-27.542v-7.892h27.264L280.3,143.017c-1.209,1.724-1.209,4.021,0,5.744l10.416,14.845H263.453z" style="fill: rgb(217, 119, 6); paint-order: stroke;"/>
  </g>
  <g/>
  <g/>
  <g/>
  <g/>
  <g/>
  <g/>
  <g/>
  <g/>
  <g/>
  <g/>
  <g/>
  <g/>
  <g/>
  <g/>
  <g/>
  <text style="fill: rgb(217, 119, 6); font-family: Bangers; font-size: 20px; font-weight: 700; letter-spacing: 8.5px; paint-order: fill; text-anchor: middle; text-transform: capitalize; word-spacing: 1px; white-space: pre;" transform="matrix(1.843782, 0, 0, 1.090909, -116.253784, -121.811752)" x="148.167" y="166.165">MENU</text>
</svg>